<svg width="1600" height="900" viewBox="0 0 1600 900" fill="none" xmlns="http://www.w3.org/2000/svg" role="img" aria-label="Academic 360 project preview placeholder">
  <defs>
    <linearGradient id="bg1" x1="100" y1="60" x2="1500" y2="840" gradientUnits="userSpaceOnUse">
      <stop stop-color="#FFFFFF"/>
      <stop offset="1" stop-color="#F8FAFC"/>
    </linearGradient>
    <linearGradient id="accent1" x1="240" y1="150" x2="1320" y2="760" gradientUnits="userSpaceOnUse">
      <stop stop-color="#14B8A6"/>
      <stop offset="1" stop-color="#22D3EE"/>
    </linearGradient>
  </defs>
  <rect width="1600" height="900" rx="44" fill="url(#bg1)"/>
  <rect x="70" y="70" width="1460" height="760" rx="36" fill="#FFFFFF" stroke="#E5E7EB" stroke-width="2"/>
  <rect x="108" y="108" width="320" height="720" rx="28" fill="#F8FAFC" stroke="#E5E7EB"/>
  <rect x="466" y="108" width="1066" height="120" rx="24" fill="#F8FAFC" stroke="#E5E7EB"/>
  <rect x="466" y="256" width="340" height="240" rx="24" fill="#FFFFFF" stroke="#E5E7EB"/>
  <rect x="834" y="256" width="340" height="240" rx="24" fill="#FFFFFF" stroke="#E5E7EB"/>
  <rect x="1202" y="256" width="292" height="240" rx="24" fill="#FFFFFF" stroke="#E5E7EB"/>
  <rect x="466" y="528" width="1028" height="300" rx="24" fill="#F8FAFC" stroke="#E5E7EB"/>
  <circle cx="232" cy="220" r="72" fill="url(#accent1)" opacity="0.95"/>
  <text x="232" y="210" text-anchor="middle" fill="#FFFFFF" font-family="Inter, Arial, sans-serif" font-size="36" font-weight="700">A360</text>
  <text x="232" y="260" text-anchor="middle" fill="#0F172A" font-family="Inter, Arial, sans-serif" font-size="18" font-weight="600">Academic 360</text>
  <rect x="160" y="346" width="144" height="18" rx="9" fill="#CBD5E1"/>
  <rect x="160" y="386" width="224" height="18" rx="9" fill="#CBD5E1"/>
  <rect x="160" y="426" width="180" height="18" rx="9" fill="#CBD5E1"/>
  <rect x="160" y="484" width="240" height="48" rx="16" fill="url(#accent1)" opacity="0.92"/>
  <rect x="160" y="554" width="208" height="16" rx="8" fill="#CBD5E1"/>
  <rect x="160" y="588" width="192" height="16" rx="8" fill="#CBD5E1"/>
  <rect x="160" y="622" width="214" height="16" rx="8" fill="#CBD5E1"/>
  <rect x="520" y="304" width="140" height="16" rx="8" fill="#CBD5E1"/>
  <rect x="520" y="340" width="240" height="20" rx="10" fill="#CBD5E1"/>
  <rect x="520" y="380" width="260" height="120" rx="18" fill="#14B8A6" opacity="0.12"/>
  <rect x="888" y="304" width="140" height="16" rx="8" fill="#CBD5E1"/>
  <rect x="888" y="340" width="240" height="20" rx="10" fill="#CBD5E1"/>
  <rect x="888" y="380" width="260" height="120" rx="18" fill="#22D3EE" opacity="0.12"/>
  <rect x="1256" y="304" width="120" height="16" rx="8" fill="#CBD5E1"/>
  <rect x="1256" y="340" width="190" height="20" rx="10" fill="#CBD5E1"/>
  <rect x="1256" y="380" width="196" height="120" rx="18" fill="#14B8A6" opacity="0.12"/>
  <path d="M520 640H1400" stroke="#E5E7EB" stroke-width="2"/>
  <path d="M520 700H1220" stroke="#E5E7EB" stroke-width="2"/>
  <path d="M520 760H1360" stroke="#E5E7EB" stroke-width="2"/>
  <text x="1110" y="600" fill="#0F172A" font-family="Inter, Arial, sans-serif" font-size="42" font-weight="700">Secure academic portal</text>
  <text x="1110" y="648" fill="#64748B" font-family="Inter, Arial, sans-serif" font-size="22" font-weight="500">Authentication, roles, and optimized database workflows</text>
</svg>
