<svg width="1600" height="900" viewBox="0 0 1600 900" fill="none" xmlns="http://www.w3.org/2000/svg" role="img" aria-label="Shreeji Enterprise project preview placeholder">
  <defs>
    <linearGradient id="bg2" x1="100" y1="60" x2="1500" y2="840" gradientUnits="userSpaceOnUse">
      <stop stop-color="#FFFFFF"/>
      <stop offset="1" stop-color="#F8FAFC"/>
    </linearGradient>
    <linearGradient id="accent2" x1="260" y1="180" x2="1320" y2="760" gradientUnits="userSpaceOnUse">
      <stop stop-color="#14B8A6"/>
      <stop offset="1" stop-color="#22D3EE"/>
    </linearGradient>
  </defs>
  <rect width="1600" height="900" rx="44" fill="url(#bg2)"/>
  <rect x="70" y="70" width="1460" height="760" rx="36" fill="#FFFFFF" stroke="#E5E7EB" stroke-width="2"/>
  <rect x="70" y="70" width="1460" height="110" rx="36" fill="#F8FAFC" stroke="#E5E7EB" stroke-width="2"/>
  <circle cx="140" cy="125" r="24" fill="url(#accent2)"/>
  <rect x="190" y="108" width="150" height="18" rx="9" fill="#CBD5E1"/>
  <rect x="1220" y="102" width="110" height="36" rx="18" fill="#14B8A6" opacity="0.15"/>
  <rect x="1348" y="102" width="110" height="36" rx="18" fill="#22D3EE" opacity="0.15"/>
  <rect x="130" y="230" width="520" height="520" rx="34" fill="#F8FAFC" stroke="#E5E7EB"/>
  <rect x="700" y="230" width="790" height="240" rx="34" fill="#F8FAFC" stroke="#E5E7EB"/>
  <rect x="700" y="500" width="790" height="250" rx="34" fill="#FFFFFF" stroke="#E5E7EB"/>
  <rect x="170" y="290" width="400" height="22" rx="11" fill="#CBD5E1"/>
  <rect x="170" y="336" width="320" height="18" rx="9" fill="#CBD5E1"/>
  <rect x="170" y="370" width="350" height="18" rx="9" fill="#CBD5E1"/>
  <rect x="170" y="404" width="280" height="18" rx="9" fill="#CBD5E1"/>
  <rect x="170" y="460" width="360" height="56" rx="18" fill="url(#accent2)" opacity="0.92"/>
  <rect x="170" y="540" width="250" height="20" rx="10" fill="#CBD5E1"/>
  <rect x="170" y="576" width="312" height="20" rx="10" fill="#CBD5E1"/>
  <rect x="170" y="612" width="284" height="20" rx="10" fill="#CBD5E1"/>
  <rect x="760" y="292" width="210" height="16" rx="8" fill="#CBD5E1"/>
  <rect x="760" y="330" width="620" height="18" rx="9" fill="#CBD5E1"/>
  <rect x="760" y="370" width="550" height="18" rx="9" fill="#CBD5E1"/>
  <rect x="760" y="530" width="160" height="160" rx="28" fill="#14B8A6" opacity="0.12"/>
  <rect x="950" y="530" width="160" height="160" rx="28" fill="#22D3EE" opacity="0.12"/>
  <rect x="1140" y="530" width="160" height="160" rx="28" fill="#14B8A6" opacity="0.12"/>
  <text x="780" y="592" fill="#0F172A" font-family="Inter, Arial, sans-serif" font-size="28" font-weight="700">Modern business website</text>
  <text x="780" y="632" fill="#64748B" font-family="Inter, Arial, sans-serif" font-size="18" font-weight="500">Premium UI, contact flow, and mobile-first layout</text>
</svg>
